# xmcd CD database file
#
# Track frame offsets:
#	150
#	20298
#	42700
#	61190
#	84402
#	104174
#	121693
#	135693
#	156659
#	170843
#
# Disc length: 2568 seconds
#
# Revision: 4
# Processed by: cddbd v1.5.2PL0 Copyright (c) Steve Scherf et al.
# Submitted via: CDex 1.81
#
DISCID=8b0a060a
DTITLE=Blues Pills - Blues Pills
DYEAR=2014
DGENRE=Blues
TTITLE0=High Class Woman
TTITLE1=Ain't No Change
TTITLE2=Jupiter
TTITLE3=Black Smoke
TTITLE4=River
TTITLE5=No Hope Left For Me
TTITLE6=Devil Man
TTITLE7=Astralplane
TTITLE8=Gypsy
TTITLE9=Little Sun
EXTD=YEAR: 2014
EXTT0=
EXTT1=
EXTT2=
EXTT3=
EXTT4=
EXTT5=
EXTT6=
EXTT7=
EXTT8=
EXTT9=
PLAYORDER=
